<svg width="66" height="63" viewBox="0 0 66 63" fill="none" xmlns="http://www.w3.org/2000/svg">
<path d="M57.2533 19.7795C61.7792 15.21 62.9113 8.91842 59.7773 5.75421C56.6433 2.59 50.4119 3.73318 45.8861 8.30266C41.6052 12.6248 40.3628 18.4862 42.893 21.7858L36.9857 27.7501L35.7901 26.543L7.55784 55.0475L10.9544 58.4769L39.1869 29.9722L37.9914 28.7653L43.8988 22.801C47.167 25.3557 52.9724 24.1017 57.2533 19.7795ZM37.0912 30.0578L11.0393 56.3608L9.65408 54.9622L35.7059 28.6592L37.0912 30.0578ZM44.452 21.2272C41.8727 18.6231 42.9675 13.2806 46.8921 9.31808C50.8168 5.35559 56.1082 4.2503 58.6875 6.85447C61.267 9.45878 60.1724 14.8014 56.2477 18.7639C52.3231 22.7264 47.0315 23.8315 44.452 21.2272Z" fill="white"/>
<path d="M19.5477 8.29814C15.0282 3.72239 8.80531 2.57778 5.67566 5.74633C2.54602 8.91489 3.67671 15.215 8.19628 19.7907C12.4712 24.1188 18.2686 25.3749 21.5322 22.8168L27.4313 28.7893L26.2374 29.998L54.4305 58.5416L57.8224 55.1076L29.6291 26.5638L28.4354 27.7724L22.5362 21.8C25.0631 18.4956 23.8227 12.6262 19.5477 8.29814ZM29.7138 28.6826L55.7295 55.0217L54.3462 56.4223L28.3304 30.0831L29.7138 28.6826ZM20.9797 21.2406C18.4039 23.8483 13.1198 22.7415 9.20061 18.7736C5.2814 14.8057 4.18818 9.45585 6.7639 6.8481C9.33977 4.24022 14.624 5.34689 18.5432 9.31482C22.4624 13.2828 23.5555 18.6327 20.9797 21.2406Z" fill="white"/>
</svg>
