<svg width="1920" height="910" viewBox="0 0 1920 910" fill="none" xmlns="http://www.w3.org/2000/svg">
<path d="M-304.395 570.752L-306.502 568.951C-187.782 426.677 -66.3947 361.369 75.6001 362.261C202.008 363.572 327.894 416.961 460.887 473.443C684.56 568.88 915.406 666.931 1187.39 539.548C1383.98 447.331 1388.29 329.563 1392.6 204.969C1398.87 24.6277 1406.09 -179.934 1973.75 -370.442L1974.81 -367.835C1409.12 -177.985 1402.03 25.623 1395.43 204.936C1390.99 330.484 1387.07 448.803 1188.9 542.229C1066.71 599.609 941.185 615.989 805.079 592.644C684.63 571.816 570.786 523.287 460.496 476.305C200.301 365.735 -45.614 260.873 -304.395 570.752Z" fill="white"/>
</svg>
