<svg width="23" height="23" viewBox="0 0 23 23" fill="none" xmlns="http://www.w3.org/2000/svg">
<mask id="mask0_10_3758" style="mask-type:alpha" maskUnits="userSpaceOnUse" x="0" y="0" width="23" height="24">
<g clip-path="url(#clip0_10_3758)">
<path d="M14.2474 4.82288C13.7571 5.29374 13.495 5.8617 13.495 6.46363C13.495 7.06071 13.7522 7.63352 14.2425 8.1238L15.7716 9.65777C15.7037 9.78398 15.6406 9.91019 15.5775 10.0315C15.4901 10.2063 15.4076 10.3713 15.3202 10.5121C14.4076 11.949 13.2183 13.2548 11.6795 14.5072C10.9125 15.114 10.2669 15.5218 9.61153 15.8179C9.24745 15.4198 8.86882 15.0509 8.50474 14.6917C8.36882 14.5558 8.22805 14.4198 8.09213 14.2839C7.07272 13.2645 5.75235 13.2645 4.73295 14.2839L3.40772 15.6091C3.25724 15.7596 3.1019 15.915 2.94656 16.0606C2.6456 16.3519 2.33492 16.6577 2.04366 16.9732C1.57765 17.4441 1.33008 18.0072 1.33008 18.5994C1.33008 19.1916 1.57765 19.7644 2.04366 20.2499C2.04852 20.2547 2.04852 20.2547 2.05337 20.2596L3.7184 21.91C4.33975 22.5314 5.09702 22.8858 5.97565 22.9634C7.39311 23.0799 8.71348 22.6625 9.57755 22.3421C11.6989 21.5557 13.6649 20.3809 15.7716 18.6285C18.3104 16.5023 20.3153 13.9441 21.7279 11.0218C22.257 9.90534 22.8832 8.41506 22.99 6.75004C22.9948 6.6481 22.9997 6.5413 22.9997 6.44421C22.9997 5.32287 22.5968 4.38113 21.7958 3.64328C21.7861 3.63842 21.7813 3.62871 21.7716 3.62386C21.4657 3.37144 21.189 3.08018 20.8929 2.77436C20.6939 2.56562 20.4852 2.35203 20.2667 2.1433C19.7667 1.66272 19.1842 1.4103 18.5871 1.4103C17.9852 1.4103 17.4075 1.66758 16.9221 2.15786L14.2474 4.82288ZM19.359 3.08503C19.359 3.08989 19.3638 3.08989 19.359 3.08503C19.5629 3.27435 19.7473 3.46852 19.9512 3.67726C20.2522 3.99279 20.5677 4.31317 20.9221 4.61414C21.4463 5.10442 21.6939 5.68209 21.6939 6.43936C21.6939 6.51217 21.6939 6.58984 21.689 6.66266C21.5968 8.10439 21.0337 9.44418 20.5531 10.449C19.2231 13.1966 17.3347 15.6091 14.9416 17.614C12.9464 19.2693 11.1018 20.3761 9.12124 21.1091C7.91252 21.5605 6.97078 21.7256 6.08244 21.6528C5.51449 21.6042 5.04362 21.3858 4.64072 20.9829L2.9854 19.3275C2.7621 19.0897 2.64074 18.8373 2.64074 18.5897C2.64074 18.2839 2.8252 18.0363 2.98054 17.881C2.9854 17.8761 2.99025 17.8713 2.99511 17.8664C3.2718 17.5703 3.55821 17.2887 3.86403 16.9926C4.01936 16.8421 4.1747 16.6868 4.33489 16.5315L5.66012 15.2062C6.17468 14.6917 6.6504 14.6917 7.16496 15.2062C7.30573 15.347 7.4465 15.4829 7.58243 15.6237C7.9999 16.0315 8.38824 16.4198 8.76688 16.8421C8.77659 16.8518 8.78144 16.8616 8.79115 16.8664C9.20862 17.2839 9.61638 17.2062 9.89308 17.1188C9.90764 17.114 9.9222 17.1091 9.93676 17.1043C10.7717 16.7596 11.5581 16.2742 12.495 15.5363L12.4998 15.5315C14.1503 14.1917 15.4367 12.7791 16.4221 11.2209C16.5483 11.0218 16.6503 10.8179 16.7474 10.6238C16.8347 10.449 16.9173 10.284 17.0046 10.1432C17.0143 10.1238 17.0289 10.1044 17.0386 10.0849C17.1211 9.9199 17.16 9.76456 17.16 9.60437C17.16 9.20146 16.9075 8.94904 16.825 8.86651L15.1649 7.20634C14.9998 7.0413 14.8008 6.77916 14.8008 6.47334C14.8008 6.17237 14.9901 5.9248 15.1551 5.77432C15.16 5.76947 15.16 5.76947 15.1649 5.76461L17.8396 3.08989C18.3347 2.58989 18.8444 2.58989 19.359 3.08503Z" fill="black"/>
<path d="M5.47189 10.5704C5.68548 9.29861 6.28742 8.14329 7.20974 7.22097C8.13205 6.29865 9.28738 5.70157 10.5592 5.48313C10.8796 5.42973 11.1029 5.15304 11.1029 4.83751C11.1029 4.79867 11.098 4.76469 11.0932 4.72586C11.0349 4.36664 10.6951 4.12878 10.3359 4.18703C8.79709 4.44916 7.3942 5.17731 6.28256 6.28894C5.17093 7.40058 4.44278 8.80347 4.18065 10.3423C4.1224 10.7015 4.36026 11.0365 4.71462 11.0996C5.06899 11.1627 5.41364 10.9297 5.47189 10.5704Z" fill="black"/>
<path d="M10.1458 0.0268513C7.61184 0.458885 5.30604 1.65304 3.47111 3.48797C1.63618 5.3229 0.442024 7.62869 0.00999088 10.1626C-0.0531151 10.517 0.1896 10.852 0.543965 10.9151C0.903184 10.9733 1.23813 10.7355 1.30124 10.3762C1.68473 8.11413 2.75753 6.05105 4.39343 4.41029C6.03419 2.76953 8.09727 1.70159 10.3594 1.3181C10.6798 1.2647 10.9031 0.988004 10.9031 0.672475C10.9031 0.633641 10.8982 0.59966 10.8933 0.560825C10.84 0.206461 10.5002 -0.0362542 10.1458 0.0268513Z" fill="black"/>
</g>
</mask>
<g mask="url(#mask0_10_3758)">
<rect x="43.9082" y="27.1819" width="130.333" height="120.576" transform="rotate(-180 43.9082 27.1819)" fill="white"/>
</g>
<defs>
<clipPath id="clip0_10_3758">
<rect width="23" height="23" fill="white" transform="translate(0 23.0002) rotate(-90)"/>
</clipPath>
</defs>
</svg>
