<svg width="203" height="220" viewBox="0 0 203 220" fill="none" xmlns="http://www.w3.org/2000/svg">
<path d="M22.8892 151.258C29.3678 166.717 51.6345 191.872 88.873 168.823M88.873 168.823C135.421 140.012 97.2682 110.628 70.1309 123.318C42.9937 136.008 59.5366 168.911 88.873 168.823ZM88.873 168.823C100.548 170.558 127.28 171.288 140.811 160.331C157.725 146.636 155.051 109.729 146.343 88.3655" stroke="white" stroke-width="3" stroke-dasharray="9 9"/>
<path d="M130.43 60.2023C131.751 53.6047 140.132 51.4861 144.43 56.6633L157.974 72.9787C161.732 77.5051 159.483 84.4028 153.78 85.8447L136.071 90.3214C130.368 91.7632 125.111 86.7629 126.266 80.9945L130.43 60.2023Z" fill="white"/>
</svg>
