<svg width="25" height="25" viewBox="0 0 25 25" fill="none" xmlns="http://www.w3.org/2000/svg">
<path d="M17.3927 6.27738C17.1554 6.27738 16.9234 6.34776 16.726 6.47962C16.5287 6.61148 16.3749 6.79889 16.2841 7.01816C16.1933 7.23743 16.1695 7.47871 16.2158 7.71149C16.2621 7.94427 16.3764 8.15809 16.5442 8.32591C16.712 8.49373 16.9258 8.60802 17.1586 8.65433C17.3914 8.70063 17.6327 8.67686 17.852 8.58604C18.0712 8.49521 18.2586 8.34141 18.3905 8.14407C18.5224 7.94673 18.5927 7.71472 18.5927 7.47738C18.5927 7.15912 18.4663 6.8539 18.2413 6.62885C18.0162 6.40381 17.711 6.27738 17.3927 6.27738ZM21.9927 8.69738C21.9733 7.86768 21.8179 7.04679 21.5327 6.26738C21.2785 5.60052 20.8827 4.99666 20.3727 4.49738C19.8776 3.98481 19.2723 3.59156 18.6027 3.34738C17.8254 3.05354 17.0036 2.89459 16.1727 2.87738C15.1127 2.81738 14.7727 2.81738 12.0527 2.81738C9.33273 2.81738 8.99273 2.81738 7.93273 2.87738C7.10189 2.89459 6.28008 3.05354 5.50273 3.34738C4.83441 3.59403 4.22967 3.98694 3.73273 4.49738C3.22016 4.99256 2.82691 5.59782 2.58273 6.26738C2.2889 7.04473 2.12994 7.86654 2.11273 8.69738C2.05273 9.75738 2.05273 10.0974 2.05273 12.8174C2.05273 15.5374 2.05273 15.8774 2.11273 16.9374C2.12994 17.7682 2.2889 18.59 2.58273 19.3674C2.82691 20.0369 3.22016 20.6422 3.73273 21.1374C4.22967 21.6478 4.83441 22.0407 5.50273 22.2874C6.28008 22.5812 7.10189 22.7402 7.93273 22.7574C8.99273 22.8174 9.33273 22.8174 12.0527 22.8174C14.7727 22.8174 15.1127 22.8174 16.1727 22.7574C17.0036 22.7402 17.8254 22.5812 18.6027 22.2874C19.2723 22.0432 19.8776 21.65 20.3727 21.1374C20.885 20.64 21.2811 20.0356 21.5327 19.3674C21.8179 18.588 21.9733 17.7671 21.9927 16.9374C21.9927 15.8774 22.0527 15.5374 22.0527 12.8174C22.0527 10.0974 22.0527 9.75738 21.9927 8.69738ZM20.1927 16.8174C20.1855 17.4522 20.0705 18.0811 19.8527 18.6774C19.6931 19.1126 19.4366 19.5058 19.1027 19.8274C18.7784 20.1579 18.386 20.4138 17.9527 20.5774C17.3564 20.7951 16.7275 20.9101 16.0927 20.9174C15.0927 20.9674 14.7227 20.9774 12.0927 20.9774C9.46273 20.9774 9.09273 20.9774 8.09273 20.9174C7.43363 20.9297 6.77733 20.8282 6.15273 20.6174C5.73852 20.4455 5.36409 20.1902 5.05273 19.8674C4.72082 19.5461 4.46758 19.1526 4.31273 18.7174C4.06859 18.1125 3.93318 17.4693 3.91273 16.8174C3.91273 15.8174 3.85273 15.4474 3.85273 12.8174C3.85273 10.1874 3.85273 9.81738 3.91273 8.81738C3.91722 8.16844 4.03568 7.52533 4.26273 6.91738C4.43878 6.49529 4.709 6.11904 5.05273 5.81738C5.35655 5.47355 5.73202 5.20048 6.15273 5.01738C6.76229 4.79743 7.40473 4.68246 8.05273 4.67738C9.05273 4.67738 9.42273 4.61738 12.0527 4.61738C14.6827 4.61738 15.0527 4.61738 16.0527 4.67738C16.6875 4.68466 17.3164 4.79963 17.9127 5.01738C18.3672 5.18604 18.775 5.46023 19.1027 5.81738C19.4304 6.12456 19.6865 6.50012 19.8527 6.91738C20.075 7.52632 20.19 8.16916 20.1927 8.81738C20.2427 9.81738 20.2527 10.1874 20.2527 12.8174C20.2527 15.4474 20.2427 15.8174 20.1927 16.8174ZM12.0527 7.68738C11.0385 7.68936 10.0477 7.99191 9.20539 8.5568C8.36308 9.12169 7.70711 9.92358 7.32037 10.8611C6.93362 11.7987 6.83346 12.8298 7.03253 13.8243C7.2316 14.8188 7.72097 15.7319 8.43881 16.4484C9.15665 17.1648 10.0707 17.6524 11.0656 17.8495C12.0604 18.0467 13.0914 17.9445 14.0282 17.5559C14.965 17.1673 15.7656 16.5098 16.3289 15.6664C16.8921 14.823 17.1927 13.8316 17.1927 12.8174C17.1941 12.1425 17.0619 11.474 16.804 10.8503C16.546 10.2267 16.1673 9.66019 15.6896 9.18343C15.2119 8.70667 14.6447 8.32906 14.0205 8.07231C13.3964 7.81556 12.7276 7.68475 12.0527 7.68738ZM12.0527 16.1474C11.3941 16.1474 10.7503 15.9521 10.2027 15.5862C9.65507 15.2203 9.22826 14.7002 8.97622 14.0917C8.72418 13.4832 8.65823 12.8137 8.78672 12.1677C8.91521 11.5218 9.23236 10.9284 9.69807 10.4627C10.1638 9.99701 10.7571 9.67986 11.4031 9.55137C12.049 9.42288 12.7186 9.48882 13.3271 9.74086C13.9355 9.9929 14.4556 10.4197 14.8215 10.9673C15.1874 11.5149 15.3827 12.1588 15.3827 12.8174C15.3827 13.2547 15.2966 13.6877 15.1293 14.0917C14.9619 14.4957 14.7166 14.8628 14.4074 15.172C14.0982 15.4813 13.7311 15.7266 13.3271 15.8939C12.9231 16.0612 12.49 16.1474 12.0527 16.1474Z" fill="white"/>
</svg>
