<svg width="88" height="87" viewBox="0 0 88 87" fill="none" xmlns="http://www.w3.org/2000/svg">
<mask id="mask0_45_166" style="mask-type:alpha" maskUnits="userSpaceOnUse" x="0" y="0" width="88" height="87">
<g clip-path="url(#clip0_45_166)">
<path d="M18.7949 53.5947C18.3689 54.2129 18.5245 55.0595 19.1427 55.4854C19.7609 55.9114 20.6074 55.7558 21.0334 55.1376C21.0424 55.1247 21.0511 55.1115 21.0596 55.0982C25.7848 47.9462 33.7849 43.6441 42.3569 43.6454C43.1076 43.6454 43.7163 43.0368 43.7163 42.2861C43.7163 41.5354 43.1076 40.9267 42.3569 40.9267C32.8738 40.9243 24.0229 45.683 18.7949 53.5947Z" fill="black"/>
<path d="M86.1406 70.833H77.9844V69.1908C78.016 60.3839 74.4245 51.9517 68.0528 45.8721C67.5248 45.3382 66.6642 45.3335 66.1303 45.8612C65.5964 46.3892 65.5916 47.2498 66.1194 47.7837C66.1354 47.7999 66.1517 47.8157 66.1685 47.831C72.0045 53.4002 75.294 61.124 75.2655 69.1908V70.833H12.7344V69.1908C12.7524 52.8377 26.0048 39.5853 42.3579 39.5673H45.6421C48.1673 39.5656 50.6823 39.8854 53.1268 40.5189C53.8461 40.7342 54.6036 40.3257 54.8189 39.6064C55.0342 38.8871 54.6257 38.1296 53.9064 37.9143C53.8735 37.9045 53.84 37.8958 53.8064 37.8885C51.9289 37.4042 50.0117 37.0899 48.078 36.9492V32.7704C48.078 32.0197 47.4693 31.4111 46.7186 31.4111H41.2811C40.5304 31.4111 39.9217 32.0197 39.9217 32.7704V36.9492C23.0643 38.2402 10.0377 52.2839 10.0155 69.1908V70.833H1.85938C1.10866 70.833 0.5 71.4416 0.5 72.1923C0.5 72.943 1.10866 73.5517 1.85938 73.5517H86.1406C86.8913 73.5517 87.5 72.943 87.5 72.1923C87.5 71.4416 86.8913 70.833 86.1406 70.833ZM42.6406 34.1298H45.3594V36.8486H42.6406V34.1298Z" fill="black"/>
<path d="M58.0478 30.382C59.3134 31.5117 60.3125 32.4034 60.3125 34.2236C60.3125 36.0438 59.3134 36.9356 58.0478 38.072C56.1239 39.4164 54.9477 41.5904 54.875 43.9364C54.875 44.6871 55.4837 45.2957 56.2344 45.2957C56.9851 45.2957 57.5938 44.6871 57.5938 43.9364C57.5938 42.1162 58.5929 41.2244 59.8585 40.0948C61.7835 38.7483 62.9597 36.5718 63.0312 34.2236C62.9597 31.8758 61.7835 29.6998 59.8585 28.3539C58.5929 27.2242 57.5938 26.3325 57.5938 24.5136C57.5938 22.6948 58.5929 21.8044 59.8585 20.6747C61.7835 19.3301 62.9599 17.1548 63.0312 14.8077C63.0312 14.057 62.4226 13.4483 61.6719 13.4483C60.9212 13.4483 60.3125 14.057 60.3125 14.8077C60.3125 16.6252 59.3134 17.5156 58.0478 18.6452C56.1224 19.9903 54.946 22.1661 54.875 24.5136C54.9467 26.8609 56.1229 29.0366 58.0478 30.382Z" fill="black"/>
<path d="M66.204 30.382C67.4696 31.5117 68.4688 32.4034 68.4688 34.2236C68.4688 36.0438 67.4696 36.9424 66.204 38.0666C64.2786 39.4122 63.1023 41.5884 63.0312 43.9364C63.0312 44.6871 63.6399 45.2957 64.3906 45.2957C65.1413 45.2957 65.75 44.6871 65.75 43.9364C65.75 42.1162 66.7491 41.2244 68.0147 40.0948C69.9398 38.7483 71.116 36.5718 71.1875 34.2236C71.116 31.8758 69.9398 29.6998 68.0147 28.3539C66.7491 27.2242 65.75 26.3325 65.75 24.5136C65.75 22.6948 66.7491 21.8044 68.0147 20.6747C69.9398 19.3301 71.1161 17.1548 71.1875 14.8077C71.1875 14.057 70.5788 13.4483 69.8281 13.4483C69.0774 13.4483 68.4688 14.057 68.4688 14.8077C68.4688 16.6252 67.4696 17.5156 66.204 18.6452C64.2786 19.9903 63.1023 22.1661 63.0312 24.5136C63.103 26.8609 64.2792 29.0366 66.204 30.382Z" fill="black"/>
<path d="M74.3603 30.382C75.6259 31.5117 76.625 32.4034 76.625 34.2236C76.625 36.0438 75.6259 36.9424 74.3603 38.0666C72.4349 39.4122 71.2585 41.5884 71.1875 43.9364C71.1875 44.6871 71.7962 45.2957 72.5469 45.2957C73.2976 45.2957 73.9062 44.6871 73.9062 43.9364C73.9062 42.1162 74.9054 41.2244 76.171 40.0948C78.096 38.7483 79.2722 36.5718 79.3438 34.2236C79.2722 31.8758 78.096 29.6998 76.171 28.3539C74.9054 27.2242 73.9062 26.3325 73.9062 24.5136C73.9062 22.6948 74.9054 21.8044 76.171 20.6747C78.096 19.3301 79.2724 17.1548 79.3438 14.8077C79.3438 14.057 78.7351 13.4483 77.9844 13.4483C77.2337 13.4483 76.625 14.057 76.625 14.8077C76.625 16.6252 75.6259 17.5156 74.3603 18.6452C72.4349 19.9903 71.2585 22.1661 71.1875 24.5136C71.2592 26.8609 72.4354 29.0366 74.3603 30.382Z" fill="black"/>
</g>
</mask>
<g mask="url(#mask0_45_166)">
<rect x="-12.5" y="-10" width="111" height="101" fill="#BC9060"/>
</g>
<defs>
<clipPath id="clip0_45_166">
<rect width="87" height="87" fill="white" transform="translate(0.5)"/>
</clipPath>
</defs>
</svg>
